<svg id='Holy_Bible_24' width='24' height='24' viewBox='0 0 24 24' xmlns='http://www.w3.org/2000/svg' xmlns:xlink='http://www.w3.org/1999/xlink'><rect width='24' height='24' stroke='none' fill='#000000' opacity='0'/>


<g transform="matrix(0.83 0 0 0.83 12 12)" >
<path style="stroke: none; stroke-width: 1; stroke-dasharray: none; stroke-linecap: butt; stroke-dashoffset: 0; stroke-linejoin: miter; stroke-miterlimit: 4; fill: rgb(0,0,0); fill-rule: nonzero; opacity: 1;" transform=" translate(-15.01, -15)" d="M 8 3 C 6.343 3 5 4.343 5 6 L 5 24 C 5.000049836642194 24.26615667852863 5.106190101676021 24.521314907418187 5.2949219 24.708984 C 5.6477556 25.972969 6.6303589 27 8 27 L 24 27 C 24.360635916577568 27.005100289545485 24.696081364571608 26.815624703830668 24.877887721486516 26.50412715028567 C 25.059694078401428 26.19262959674067 25.059694078401428 25.80737040325933 24.877887721486516 25.49587284971433 C 24.696081364571608 25.184375296169332 24.360635916577568 24.994899710454515 24 25 L 8 25 C 7.4349698 25 7 24.56503 7 24 C 7 23.43497 7.4349698 23 8 23 L 23 23 C 24.105 23 25 22.105 25 21 L 25 5 C 25 3.895 24.105 3 23 3 L 8 3 z M 15 7 C 15.552 7 16 7.448 16 8 L 16 10 L 18 10 C 18.552 10 19 10.448 19 11 C 19 11.552 18.552 12 18 12 L 16 12 L 16 18 C 16 18.552 15.552 19 15 19 C 14.448 19 14 18.552 14 18 L 14 12 L 12 12 C 11.448 12 11 11.552 11 11 C 11 10.448 11.448 10 12 10 L 14 10 L 14 8 C 14 7.448 14.448 7 15 7 z" stroke-linecap="round" />
</g>
</svg>